<svg width="70" height="70" viewBox="0 0 70 70" fill="none" xmlns="http://www.w3.org/2000/svg">
<g filter="url(#filter0_d)">
<path d="M57.5086 32.9833L55.2402 32.6992C54.5505 31.0119 53.5597 29.4512 52.3283 28.1008L53.9961 21.035C54.0647 20.7445 53.9967 20.4388 53.8116 20.2048C53.6264 19.9708 53.3445 19.8343 53.0461 19.8341L52.8328 19.834C52.8315 19.834 52.8306 19.834 52.8293 19.834C50.0607 19.834 47.5655 21.576 46.584 24.131C45.8899 23.8552 45.1763 23.6279 44.4486 23.4558C43.9237 23.3316 43.3976 23.6563 43.2735 24.1813C43.1494 24.7062 43.4742 25.2323 43.9991 25.3564C46.4849 25.9444 48.7024 27.2015 50.4502 28.9459C50.5141 29.0394 50.5937 29.1223 50.6872 29.1892C51.9614 30.5265 52.9685 32.131 53.6218 33.9291C53.7469 34.2736 54.0546 34.5191 54.4183 34.5646L57.2661 34.9212C57.7114 34.9769 58.047 35.3573 58.047 35.8059V40.7295C58.047 41.1781 57.7113 41.5585 57.2661 41.6142L54.6272 41.9446C54.2476 41.9921 53.9307 42.2568 53.8164 42.6219C53.0335 45.1234 51.546 47.3354 49.5145 49.0186C49.2906 49.2042 49.161 49.4798 49.161 49.7706V55.1684C49.161 55.6529 48.7668 56.047 48.2825 56.047H42.6177C42.1333 56.047 41.7391 55.6529 41.7391 55.1684V53.1112C41.7391 52.5718 41.3018 52.1346 40.7626 52.1346H32.5581C32.0188 52.1346 31.5815 52.5718 31.5815 53.1112V55.1684C31.5815 55.6529 31.1874 56.047 30.7029 56.047H25.0381C24.5537 56.047 24.1595 55.6529 24.1595 55.1684V51.357C24.1595 50.9989 23.9636 50.6696 23.6489 50.4988C19.2659 48.1191 16.543 43.5458 16.543 38.5635C16.543 31.0804 22.6309 24.9924 30.1141 24.9924H31.3379C31.8771 24.9924 32.3144 24.5552 32.3144 24.0158C32.3144 23.4765 31.8771 23.0393 31.3379 23.0393H30.1141C22.8649 23.0393 16.7609 28.0341 15.0612 34.7629H14.3457C13.0264 34.7629 11.9531 33.6895 11.9531 32.3703C11.9531 31.0511 13.0264 29.9777 14.3457 29.9777C14.885 29.9777 15.3223 29.5405 15.3223 29.0012C15.3223 28.4618 14.885 28.0246 14.3457 28.0246C11.9495 28.0246 10 29.974 10 32.3703C10 34.7666 11.9495 36.716 14.3457 36.716H14.7003C14.628 37.322 14.5898 37.9384 14.5898 38.5635C14.5898 44.0664 17.4935 49.1331 22.2063 51.9255V55.1685C22.2063 56.7299 23.4766 58.0002 25.038 58.0002H30.7027C32.2641 58.0002 33.5344 56.7299 33.5344 55.1685V54.0878H39.7858V55.1685C39.7858 56.7299 41.0561 58.0002 42.6175 58.0002H48.2823C49.8436 58.0002 51.1139 56.7299 51.1139 55.1685V50.2209C53.0967 48.477 54.593 46.2773 55.4785 43.8064L57.5085 43.5522C58.9288 43.3745 59.9999 42.1609 59.9999 40.7295V35.8059C59.9999 34.3746 58.9289 33.161 57.5086 32.9833ZM50.6882 26.5468C49.9597 25.9509 49.1794 25.4229 48.3587 24.9696C48.8983 23.4193 50.2143 22.2658 51.7837 21.9057L50.6882 26.5468Z" fill="url(#paint0_linear)"/>
<path d="M48.8739 32.7979C48.6924 32.6162 48.4404 32.5117 48.1836 32.5117C47.9268 32.5117 47.6748 32.6162 47.4932 32.7979C47.3115 32.9795 47.207 33.2314 47.207 33.4883C47.207 33.7451 47.3114 33.9971 47.4932 34.1787C47.6749 34.3603 47.9268 34.4648 48.1836 34.4648C48.4404 34.4648 48.6924 34.3603 48.8739 34.1787C49.0556 33.9971 49.1602 33.7451 49.1602 33.4883C49.1602 33.2314 49.0556 32.9795 48.8739 32.7979Z" fill="url(#paint1_linear)"/>
<path d="M38.637 13.6968C38.0977 13.6968 37.6604 14.134 37.6604 14.6733V18.5469C37.6604 19.0862 38.0977 19.5234 38.637 19.5234C39.1762 19.5234 39.6135 19.0862 39.6135 18.5469V14.6733C39.6135 14.1341 39.1763 13.6968 38.637 13.6968Z" fill="url(#paint2_linear)"/>
<path d="M39.327 10.4395C39.1455 10.2578 38.8936 10.1533 38.6367 10.1533C38.3798 10.1533 38.1279 10.2578 37.9463 10.4395C37.7646 10.6211 37.6602 10.873 37.6602 11.1299C37.6602 11.3877 37.7645 11.6387 37.9463 11.8203C38.1279 12.002 38.3798 12.1064 38.6367 12.1064C38.8936 12.1064 39.1455 12.002 39.327 11.8203C39.5087 11.6387 39.6133 11.3867 39.6133 11.1299C39.6133 10.873 39.5087 10.6221 39.327 10.4395Z" fill="url(#paint3_linear)"/>
<path d="M30.7031 8C30.1639 8 29.7266 8.43721 29.7266 8.97656V10.6367C29.7266 11.1761 30.1639 11.6133 30.7031 11.6133C31.2424 11.6133 31.6797 11.1761 31.6797 10.6367V8.97656C31.6797 8.43721 31.2425 8 30.7031 8Z" fill="url(#paint4_linear)"/>
<path d="M21.1267 38.5635C21.1267 38.0241 20.6894 37.5869 20.1501 37.5869C19.6109 37.5869 19.1736 38.0241 19.1736 38.5635L19.1737 38.6153C19.177 39.1525 19.6136 39.5858 20.1501 39.5858C20.1521 39.5858 20.1541 39.5858 20.1563 39.5858C20.6956 39.5824 21.1301 39.1425 21.1268 38.6031L21.1267 38.5635Z" fill="url(#paint5_linear)"/>
<path d="M25.4494 46.2471C23.7518 45.214 22.4267 43.6268 21.7183 41.7779C21.5253 41.2741 20.9605 41.0222 20.457 41.2154C19.9534 41.4084 19.7015 41.973 19.8945 42.4767C20.7568 44.7274 22.369 46.6589 24.4341 47.9156C24.5927 48.0121 24.7678 48.0581 24.9408 48.0581C25.2704 48.0581 25.5921 47.8912 25.776 47.589C26.0564 47.1283 25.91 46.5275 25.4494 46.2471Z" fill="url(#paint6_linear)"/>
<path d="M30.7031 12.6924C28.4415 12.6924 26.6016 14.5323 26.6016 16.7939C26.6016 19.0556 28.4415 20.8955 30.7031 20.8955C32.9647 20.8955 34.8047 19.0556 34.8047 16.7939C34.8047 14.5323 32.9647 12.6924 30.7031 12.6924ZM30.7031 18.9424C29.5185 18.9424 28.5547 17.9786 28.5547 16.7939C28.5547 15.6093 29.5185 14.6455 30.7031 14.6455C31.8878 14.6455 32.8516 15.6093 32.8516 16.7939C32.8516 17.9786 31.8878 18.9424 30.7031 18.9424Z" fill="url(#paint7_linear)"/>
<path d="M43.0078 28.7031H42.1289C42.515 28.0778 42.7385 27.342 42.7385 26.5547C42.7385 24.2931 40.8985 22.4531 38.6369 22.4531C36.3753 22.4531 34.5353 24.2931 34.5353 26.5547C34.5352 27.342 34.7587 28.0778 35.1448 28.7031H30.3125C29.7732 28.7031 29.3359 29.1403 29.3359 29.6797C29.3359 30.219 29.7732 30.6562 30.3125 30.6562H43.0078C43.547 30.6562 43.9844 30.219 43.9844 29.6797C43.9844 29.1403 43.5471 28.7031 43.0078 28.7031ZM38.6369 28.7031C37.4522 28.7031 36.4885 27.7393 36.4885 26.5547C36.4885 25.37 37.4522 24.4062 38.6369 24.4062C39.8216 24.4062 40.7853 25.37 40.7853 26.5547C40.7853 27.7393 39.8215 28.7031 38.6369 28.7031Z" fill="url(#paint8_linear)"/>
</g>
<defs>
<filter id="filter0_d" x="0" y="0" width="69.9999" height="70.0002" filterUnits="userSpaceOnUse" color-interpolation-filters="sRGB">
<feFlood flood-opacity="0" result="BackgroundImageFix"/>
<feColorMatrix in="SourceAlpha" type="matrix" values="0 0 0 0 0 0 0 0 0 0 0 0 0 0 0 0 0 0 127 0"/>
<feOffset dy="2"/>
<feGaussianBlur stdDeviation="5"/>
<feColorMatrix type="matrix" values="0 0 0 0 0.992157 0 0 0 0 0.47451 0 0 0 0 0.223529 0 0 0 0.4 0"/>
<feBlend mode="normal" in2="BackgroundImageFix" result="effect1_dropShadow"/>
<feBlend mode="normal" in="SourceGraphic" in2="effect1_dropShadow" result="shape"/>
</filter>
<linearGradient id="paint0_linear" x1="35" y1="19.834" x2="35" y2="58.0002" gradientUnits="userSpaceOnUse">
<stop stop-color="#FBAD09"/>
<stop offset="1" stop-color="#FF5060"/>
</linearGradient>
<linearGradient id="paint1_linear" x1="48.1836" y1="32.5117" x2="48.1836" y2="34.4648" gradientUnits="userSpaceOnUse">
<stop stop-color="#FBAD09"/>
<stop offset="1" stop-color="#FF5060"/>
</linearGradient>
<linearGradient id="paint2_linear" x1="38.637" y1="13.6968" x2="38.637" y2="19.5234" gradientUnits="userSpaceOnUse">
<stop stop-color="#FBAD09"/>
<stop offset="1" stop-color="#FF5060"/>
</linearGradient>
<linearGradient id="paint3_linear" x1="38.6367" y1="10.1533" x2="38.6367" y2="12.1064" gradientUnits="userSpaceOnUse">
<stop stop-color="#FBAD09"/>
<stop offset="1" stop-color="#FF5060"/>
</linearGradient>
<linearGradient id="paint4_linear" x1="30.7031" y1="8" x2="30.7031" y2="11.6133" gradientUnits="userSpaceOnUse">
<stop stop-color="#FBAD09"/>
<stop offset="1" stop-color="#FF5060"/>
</linearGradient>
<linearGradient id="paint5_linear" x1="20.1502" y1="37.5869" x2="20.1502" y2="39.5858" gradientUnits="userSpaceOnUse">
<stop stop-color="#FBAD09"/>
<stop offset="1" stop-color="#FF5060"/>
</linearGradient>
<linearGradient id="paint6_linear" x1="22.874" y1="41.1504" x2="22.874" y2="48.0581" gradientUnits="userSpaceOnUse">
<stop stop-color="#FBAD09"/>
<stop offset="1" stop-color="#FF5060"/>
</linearGradient>
<linearGradient id="paint7_linear" x1="30.7031" y1="12.6924" x2="30.7031" y2="20.8955" gradientUnits="userSpaceOnUse">
<stop stop-color="#FBAD09"/>
<stop offset="1" stop-color="#FF5060"/>
</linearGradient>
<linearGradient id="paint8_linear" x1="36.6601" y1="22.4531" x2="36.6601" y2="30.6562" gradientUnits="userSpaceOnUse">
<stop stop-color="#FBAD09"/>
<stop offset="1" stop-color="#FF5060"/>
</linearGradient>
</defs>
</svg>
