<svg width="16" height="16" viewBox="0 0 16 16" fill="none" xmlns="http://www.w3.org/2000/svg">
<path d="M4.10937 14.75H1.89665C1.62984 14.75 1.46887 14.6011 1.39668 14.5123C1.27205 14.359 1.22377 14.1595 1.2643 13.9648C1.91334 10.8473 4.66459 8.57059 7.84071 8.49672C7.89362 8.49869 7.94665 8.5 7.99999 8.5C8.05381 8.5 8.1073 8.49866 8.16068 8.49666C8.93734 8.51437 9.69596 8.66041 10.4181 8.93156C10.7412 9.05297 11.1015 8.88931 11.2229 8.56616C11.3442 8.24303 11.1806 7.88269 10.8575 7.76134C10.754 7.72247 10.6498 7.68609 10.5451 7.65159C11.5795 6.87566 12.25 5.63966 12.25 4.25C12.25 1.90656 10.3435 0 7.99999 0C5.65652 0 3.74999 1.90656 3.74999 4.25C3.74999 5.64091 4.42162 6.87787 5.45759 7.65369C4.50849 7.96613 3.61787 8.452 2.83843 9.09313C1.4093 10.2687 0.415648 11.9083 0.0405543 13.7101C-0.0770082 14.2747 0.0638043 14.8545 0.426898 15.301C0.788148 15.7452 1.32387 16 1.89665 16H4.10937C4.45456 16 4.73437 15.7202 4.73437 15.375C4.73437 15.0298 4.45456 14.75 4.10937 14.75ZM4.99999 4.25C4.99999 2.59578 6.34577 1.25 7.99999 1.25C9.65421 1.25 11 2.59578 11 4.25C11 5.85522 9.73268 7.16994 8.14606 7.24641C8.0974 7.24553 8.04874 7.24478 7.99999 7.24478C7.95112 7.24478 7.90227 7.2455 7.85346 7.24638C6.26706 7.16969 4.99999 5.85506 4.99999 4.25Z" fill="black"/>
<path d="M15.5215 10.769C15.254 10.1705 14.6514 9.78278 13.9848 9.78125H12.0357C12.0343 9.78125 12.033 9.78125 12.0315 9.78125C11.3284 9.78125 10.715 10.1956 10.4681 10.8377C10.4353 10.9232 10.3951 11.0308 10.3532 11.1562H6.26114C6.09217 11.1562 5.93042 11.2247 5.8127 11.3459L4.73908 12.4517C4.50261 12.6953 4.5038 13.0831 4.74173 13.3252L5.83548 14.4381C5.95298 14.5576 6.11361 14.625 6.28123 14.625H8.31248C8.65767 14.625 8.93748 14.3452 8.93748 14C8.93748 13.6548 8.65767 13.375 8.31248 13.375H6.5433L6.06117 12.8844L6.52545 12.4062H10.822C11.11 12.4062 11.3606 12.2095 11.4291 11.9299C11.4797 11.7234 11.5431 11.5249 11.6349 11.2862C11.6954 11.1289 11.8473 11.0312 12.033 11.0312C12.0334 11.0312 12.0338 11.0312 12.0342 11.0312H13.9833C14.1601 11.0317 14.3122 11.1267 14.3804 11.2791C14.5481 11.6545 14.7485 12.2356 14.75 12.8724C14.7515 13.514 14.5514 14.1084 14.3831 14.4941C14.3153 14.6497 14.1619 14.75 13.9906 14.75C13.9903 14.75 13.99 14.75 13.9896 14.75H12.017C11.844 14.7496 11.6821 14.6383 11.614 14.4732C11.5409 14.296 11.4775 14.0936 11.4203 13.8545C11.34 13.5188 11.0026 13.3118 10.667 13.3922C10.3313 13.4725 10.1243 13.8098 10.2046 14.1455C10.2772 14.4486 10.3602 14.7117 10.4584 14.9498C10.7209 15.5862 11.3315 15.9984 12.0155 16H13.9882C13.9895 16 13.9908 16 13.9921 16C14.6593 15.9999 15.2623 15.6053 15.529 14.9937C15.745 14.4983 16.002 13.7277 16 12.8695C15.998 12.0136 15.7387 11.2548 15.5215 10.769Z" fill="black"/>
<path d="M13.4688 13.5C13.8139 13.5 14.0938 13.2202 14.0938 12.875C14.0938 12.5298 13.8139 12.25 13.4688 12.25C13.1236 12.25 12.8438 12.5298 12.8438 12.875C12.8438 13.2202 13.1236 13.5 13.4688 13.5Z" fill="black"/>
</svg>
