<svg width="13" height="13" viewBox="0 0 13 13" fill="none" xmlns="http://www.w3.org/2000/svg">
<path fill-rule="evenodd" clip-rule="evenodd" d="M6.03295 0.389404C4.40352 0.389404 4.19918 0.396311 3.55927 0.425603C2.91935 0.454896 2.48401 0.556825 2.10226 0.705194C1.70195 0.855792 1.33931 1.09189 1.03962 1.39703C0.734486 1.69672 0.498389 2.05936 0.34779 2.45966C0.199421 2.84142 0.0979685 3.27747 0.0689139 3.91596C0.0398594 4.55444 0.0327148 4.76021 0.0327148 6.38964C0.0327148 8.01908 0.0396212 8.22341 0.0689139 8.86333C0.0982066 9.50324 0.199421 9.93787 0.34779 10.3196C0.498458 10.72 0.734638 11.0826 1.03986 11.3823C1.33946 11.6875 1.70202 11.9236 2.10226 12.0743C2.4833 12.2227 2.92007 12.3242 3.55855 12.3532C4.19704 12.3823 4.4028 12.3894 6.03224 12.3894C7.66167 12.3894 7.86601 12.3825 8.50592 12.3532C9.14584 12.3239 9.5807 12.2227 9.96222 12.0743C10.3608 11.9202 10.7227 11.6845 11.0249 11.3823C11.3271 11.0801 11.5628 10.7182 11.7169 10.3196C11.8653 9.93858 11.9667 9.50181 11.9958 8.86333C12.0249 8.22484 12.032 8.01908 12.032 6.38964C12.032 4.76021 12.0251 4.55587 11.9958 3.91596C11.9665 3.27604 11.8653 2.84118 11.7169 2.45966C11.5663 2.05933 11.3301 1.69669 11.0249 1.39703C10.7252 1.0918 10.3625 0.855624 9.96222 0.704956C9.58046 0.556825 9.14441 0.455372 8.50592 0.426318C7.86744 0.397263 7.66167 0.390119 6.03224 0.390119L6.03295 0.389404ZM6.03216 3.30884C5.42286 3.30889 4.82725 3.48961 4.32066 3.82815C3.81406 4.16669 3.41924 4.64786 3.1861 5.21079C2.95296 5.77373 2.89199 6.39315 3.01089 6.99074C3.12978 7.58833 3.42321 8.13724 3.85407 8.56806C4.28493 8.99889 4.83386 9.29228 5.43146 9.41113C6.02906 9.52998 6.64848 9.46896 7.2114 9.23577C7.77431 9.00259 8.25544 8.60773 8.59395 8.10111C8.93245 7.59449 9.11313 6.99887 9.11313 6.38957C9.11313 5.98498 9.03343 5.58436 8.8786 5.21057C8.72376 4.83678 8.49682 4.49716 8.21072 4.21108C7.92462 3.925 7.58497 3.69808 7.21118 3.54328C6.83738 3.38847 6.43674 3.30881 6.03216 3.30884ZM6.03216 8.38957C5.6365 8.38957 5.24973 8.27225 4.92075 8.05243C4.59178 7.83261 4.33537 7.52018 4.18396 7.15464C4.03255 6.7891 3.99293 6.38688 4.07012 5.99882C4.14731 5.61077 4.33783 5.25432 4.61761 4.97455C4.89738 4.69477 5.25383 4.50425 5.64188 4.42706C6.02994 4.34987 6.43217 4.38948 6.79771 4.5409C7.16325 4.69231 7.47568 4.94871 7.69549 5.27769C7.91531 5.60667 8.03263 5.99344 8.03263 6.38909C8.03257 6.91961 7.82178 7.42838 7.44662 7.80349C7.07147 8.1786 6.56267 8.38933 6.03216 8.38933V8.38957ZM9.955 3.18697C9.955 3.58458 9.63268 3.90691 9.23507 3.90691C8.83746 3.90691 8.51514 3.58458 8.51514 3.18697C8.51514 2.78937 8.83746 2.46704 9.23507 2.46704C9.63268 2.46704 9.955 2.78937 9.955 3.18697Z" fill="#454545"/>
</svg>
