<svg width="15" height="16" viewBox="0 0 15 16" fill="none" xmlns="http://www.w3.org/2000/svg">
<path d="M14.8703 15.184L11.2242 11.2958C12.2023 10.0967 12.7944 8.53215 12.7944 6.82217C12.7944 3.05809 9.92349 0 6.39721 0C2.8676 0 0 3.06164 0 6.82217C0 10.5827 2.87092 13.6443 6.39721 13.6443C8.00067 13.6443 9.46773 13.0129 10.5922 11.9698L14.2382 15.8581C14.3247 15.9503 14.4411 16 14.5542 16C14.6673 16 14.7838 15.9539 14.8703 15.8581C15.0432 15.6736 15.0432 15.3685 14.8703 15.184ZM0.894877 6.82217C0.894877 3.5867 3.36327 0.957871 6.39388 0.957871C9.42781 0.957871 11.8929 3.59024 11.8929 6.82217C11.8929 10.0541 9.42781 12.69 6.39388 12.69C3.36327 12.69 0.894877 10.0576 0.894877 6.82217Z" fill="black"/>
</svg>
