<svg width="16" height="18" viewBox="0 0 16 18" fill="none" xmlns="http://www.w3.org/2000/svg">
<path d="M4.56002 11.8516H14.0467C15.1225 11.8516 16 10.9342 16 9.80959V5.63669C16 5.63299 16 5.62559 16 5.62189C16 5.6108 16 5.6034 16 5.5923C16 5.5849 16 5.5775 15.9965 5.5701C15.9965 5.5627 15.9929 5.55161 15.9929 5.54421C15.9929 5.53681 15.9894 5.52941 15.9894 5.52201C15.9858 5.51461 15.9858 5.50721 15.9823 5.49611C15.9788 5.48872 15.9788 5.48132 15.9752 5.47392C15.9717 5.46652 15.9717 5.45912 15.9682 5.45172C15.9646 5.44432 15.9611 5.43692 15.9575 5.42583C15.954 5.41843 15.9505 5.41103 15.9469 5.40733C15.9434 5.39993 15.9398 5.39253 15.9363 5.38513C15.9328 5.37773 15.9292 5.37404 15.9257 5.36664C15.9222 5.35924 15.9151 5.35184 15.9115 5.34444C15.908 5.33704 15.9045 5.33334 15.8974 5.32594C15.8938 5.31854 15.8868 5.31485 15.8832 5.30745C15.8797 5.30005 15.8726 5.29635 15.8691 5.28895C15.8655 5.28155 15.8585 5.27785 15.8549 5.27415C15.8478 5.26675 15.8443 5.26305 15.8372 5.25566C15.8302 5.25196 15.8266 5.24456 15.8195 5.24086C15.8125 5.23716 15.8054 5.22976 15.7983 5.22606C15.7912 5.22236 15.7877 5.21866 15.7806 5.21496C15.7735 5.21126 15.7665 5.20756 15.7594 5.20016C15.7523 5.19647 15.7452 5.19277 15.7382 5.18907C15.7311 5.18537 15.724 5.18167 15.7169 5.17797C15.7098 5.17427 15.7028 5.17057 15.6957 5.16687C15.6886 5.16317 15.6815 5.16317 15.6745 5.15947C15.6674 5.15577 15.6568 5.15207 15.6497 5.15207C15.6426 5.15207 15.6355 5.14837 15.632 5.14837C15.6214 5.14467 15.6143 5.14467 15.6037 5.14467C15.6001 5.14467 15.5966 5.14097 15.5895 5.14097L3.5657 3.40597V1.65246C3.5657 1.63397 3.5657 1.61547 3.56217 1.60067C3.56217 1.59697 3.56217 1.59327 3.55863 1.58588C3.55863 1.57478 3.55509 1.56368 3.55509 1.55258C3.55155 1.54148 3.55155 1.53408 3.54801 1.52299C3.54801 1.51559 3.54447 1.51189 3.54447 1.50449C3.54093 1.49339 3.5374 1.48229 3.53386 1.47119C3.53386 1.4675 3.53032 1.4601 3.53032 1.4564C3.52678 1.4453 3.52324 1.4379 3.51617 1.4268C3.51263 1.4231 3.51263 1.4157 3.50909 1.412C3.50555 1.40461 3.50201 1.39721 3.49493 1.38981C3.4914 1.38241 3.48786 1.37871 3.48432 1.37131C3.48078 1.36391 3.47724 1.36021 3.4737 1.35282C3.47016 1.34542 3.46309 1.33802 3.45955 1.33062C3.45601 1.32692 3.45247 1.32322 3.44893 1.31952C3.44186 1.31212 3.43478 1.30472 3.4277 1.29732C3.42416 1.29362 3.42063 1.28993 3.41709 1.28623C3.41001 1.27883 3.40293 1.27143 3.39232 1.26403C3.38878 1.26033 3.3817 1.25663 3.37816 1.25293C3.37109 1.24553 3.36401 1.24183 3.35693 1.23443C3.34632 1.22704 3.3357 1.21964 3.32862 1.21594C3.32509 1.21224 3.32155 1.21224 3.31801 1.20854C3.30386 1.20114 3.28616 1.19374 3.27201 1.18634L0.664133 0.0395371C0.419976 -0.0677448 0.140434 0.0506352 0.0378177 0.305892C-0.0647988 0.561149 0.0484333 0.853399 0.29259 0.960681L2.60677 1.98171V4.24573V4.60457V7.3569V9.81698V12.9245C2.60677 13.9603 3.34986 14.8185 4.30879 14.948C4.1354 15.2514 4.03279 15.6065 4.03279 15.9838C4.03279 17.0974 4.89972 18 5.96127 18C7.02282 18 7.88975 17.0937 7.88975 15.9838C7.88975 15.6139 7.79421 15.2625 7.62437 14.9665H11.9201C11.7503 15.2662 11.6547 15.6139 11.6547 15.9838C11.6547 17.0974 12.5217 18 13.5832 18C14.6448 18 15.5117 17.0937 15.5117 15.9838C15.5117 14.874 14.6448 13.9677 13.5832 13.9677H4.56002C4.00802 13.9677 3.56217 13.4979 3.56217 12.9245V11.5705C3.85232 11.7481 4.19556 11.8516 4.56002 11.8516ZM6.9379 15.9801C6.9379 16.5424 6.49912 16.9975 5.96481 16.9975C5.43049 16.9975 4.99172 16.5387 4.99172 15.9801C4.99172 15.4215 5.43049 14.9628 5.96481 14.9628C6.49912 14.9628 6.9379 15.4178 6.9379 15.9801ZM14.5598 15.9801C14.5598 16.5424 14.1211 16.9975 13.5867 16.9975C13.0524 16.9975 12.6137 16.5387 12.6137 15.9801C12.6137 15.4215 13.0524 14.9628 13.5867 14.9628C14.1211 14.9628 14.5598 15.4178 14.5598 15.9801ZM14.0467 10.8528H4.56002C4.00802 10.8528 3.56217 10.383 3.56217 9.80959V7.3495V4.59717V4.4122L15.0446 6.06582V9.80589C15.0446 10.3867 14.5952 10.8528 14.0467 10.8528Z" fill="white"/>
</svg>
