<svg width="23" height="24" viewBox="0 0 23 24" fill="none" xmlns="http://www.w3.org/2000/svg">
<path d="M6.35645 15.8022H19.5805C21.08 15.8022 22.3032 14.5789 22.3032 13.0794V7.51559C22.3032 7.51066 22.3032 7.50079 22.3032 7.49586C22.3032 7.48106 22.3032 7.4712 22.3032 7.4564C22.3032 7.44653 22.3032 7.43667 22.2983 7.4268C22.2983 7.41694 22.2934 7.40214 22.2934 7.39228C22.2934 7.38241 22.2884 7.37255 22.2884 7.36268C22.2835 7.35282 22.2835 7.34295 22.2786 7.32815C22.2736 7.31829 22.2736 7.30842 22.2687 7.29856C22.2638 7.28869 22.2638 7.27883 22.2588 7.26896C22.2539 7.2591 22.249 7.24923 22.244 7.23444C22.2391 7.22457 22.2342 7.21471 22.2292 7.20977C22.2243 7.19991 22.2194 7.19004 22.2144 7.18018C22.2095 7.17031 22.2046 7.16538 22.1996 7.15552C22.1947 7.14565 22.1848 7.13579 22.1799 7.12592C22.175 7.11606 22.17 7.11112 22.1602 7.10126C22.1552 7.09139 22.1454 7.08646 22.1404 7.0766C22.1355 7.06673 22.1257 7.0618 22.1207 7.05193C22.1158 7.04207 22.1059 7.03714 22.101 7.0322C22.0911 7.02234 22.0862 7.01741 22.0763 7.00754C22.0665 7.00261 22.0615 6.99274 22.0517 6.98781C22.0418 6.98288 22.0319 6.97301 22.0221 6.96808C22.0122 6.96315 22.0073 6.95822 21.9974 6.95328C21.9875 6.94835 21.9777 6.94342 21.9678 6.93355C21.9579 6.92862 21.9481 6.92369 21.9382 6.91876C21.9284 6.91382 21.9185 6.90889 21.9086 6.90396C21.8988 6.89902 21.8889 6.89409 21.879 6.88916C21.8692 6.88423 21.8593 6.88423 21.8494 6.8793C21.8396 6.87436 21.8248 6.86943 21.8149 6.86943C21.805 6.86943 21.7952 6.8645 21.7902 6.8645C21.7754 6.85957 21.7656 6.85957 21.7508 6.85957C21.7458 6.85957 21.7409 6.85463 21.7311 6.85463L4.97042 4.54129V2.20329C4.97042 2.17862 4.97042 2.15396 4.96549 2.13423C4.96549 2.1293 4.96549 2.12437 4.96055 2.1145C4.96055 2.0997 4.95562 2.08491 4.95562 2.07011C4.95069 2.05531 4.95069 2.04545 4.94576 2.03065C4.94576 2.02078 4.94082 2.01585 4.94082 2.00599C4.93589 1.99119 4.93096 1.97639 4.92603 1.96159C4.92603 1.95666 4.92109 1.9468 4.92109 1.94186C4.91616 1.92707 4.91123 1.9172 4.90136 1.9024C4.89643 1.89747 4.89643 1.88761 4.8915 1.88267C4.88657 1.87281 4.88163 1.86294 4.87177 1.85308C4.86684 1.84321 4.8619 1.83828 4.85697 1.82842C4.85204 1.81855 4.84711 1.81362 4.84217 1.80375C4.83724 1.79389 4.82738 1.78402 4.82244 1.77416C4.81751 1.76923 4.81258 1.76429 4.80765 1.75936C4.79778 1.7495 4.78792 1.73963 4.77805 1.72977C4.77312 1.72483 4.76819 1.7199 4.76325 1.71497C4.75339 1.7051 4.74352 1.69524 4.72873 1.68537C4.72379 1.68044 4.71393 1.67551 4.709 1.67058C4.69913 1.66071 4.68927 1.65578 4.6794 1.64591C4.6646 1.63605 4.64981 1.62618 4.63994 1.62125C4.63501 1.61632 4.63008 1.61632 4.62514 1.61139C4.60541 1.60152 4.58075 1.59166 4.56102 1.58179L0.925769 0.0527161C0.585426 -0.0903264 0.195759 0.0675136 0.0527161 0.407856C-0.0903264 0.748199 0.0675136 1.13787 0.407856 1.28091L3.63371 2.64228V5.66097V6.13942V9.8092V13.0893V17.2326C3.63371 18.6137 4.66954 19.7581 6.00624 19.9307C5.76455 20.3352 5.62151 20.8087 5.62151 21.3118C5.62151 22.7965 6.82997 24 8.30972 24C9.78947 24 10.9979 22.7915 10.9979 21.3118C10.9979 20.8185 10.8648 20.35 10.628 19.9554H16.616C16.3793 20.3549 16.2461 20.8185 16.2461 21.3118C16.2461 22.7965 17.4546 24 18.9343 24C20.4141 24 21.6225 22.7915 21.6225 21.3118C21.6225 19.832 20.4141 18.6236 18.9343 18.6236H6.35645C5.58698 18.6236 4.96549 17.9971 4.96549 17.2326V15.4273C5.36995 15.6641 5.8484 15.8022 6.35645 15.8022ZM9.67109 21.3069C9.67109 22.0566 9.05946 22.6633 8.31465 22.6633C7.56984 22.6633 6.95821 22.0517 6.95821 21.3069C6.95821 20.562 7.56984 19.9504 8.31465 19.9504C9.05946 19.9504 9.67109 20.5571 9.67109 21.3069ZM20.2957 21.3069C20.2957 22.0566 19.6841 22.6633 18.9393 22.6633C18.1944 22.6633 17.5828 22.0517 17.5828 21.3069C17.5828 20.562 18.1944 19.9504 18.9393 19.9504C19.6841 19.9504 20.2957 20.5571 20.2957 21.3069ZM19.5805 14.4704H6.35645C5.58698 14.4704 4.96549 13.844 4.96549 13.0794V9.79934V6.12956V5.88293L20.9714 8.08776V13.0745C20.9714 13.8489 20.345 14.4704 19.5805 14.4704Z" fill="black"/>
</svg>
