<svg width="18" height="15" viewBox="0 0 18 15" fill="none" xmlns="http://www.w3.org/2000/svg">
<path d="M9.85716 0C5.72277 0 2.3607 3.36561 2.3607 7.5V7.5248L0.876292 5.28932C0.73104 5.06967 0.433449 5.00945 0.213798 5.1547C-0.00585202 5.29995 -0.0660788 5.59754 0.0791739 5.81719L2.23317 9.05881C2.31111 9.17572 2.4351 9.25012 2.57327 9.26783C2.59453 9.27137 2.61224 9.27137 2.6335 9.27137C2.75041 9.27137 2.86377 9.22886 2.95234 9.14738L5.94597 6.45135C6.14082 6.27421 6.15853 5.97308 5.98139 5.77468C5.80426 5.57983 5.50312 5.56212 5.30473 5.73925L3.31725 7.53543V7.5C3.31725 3.88994 6.25064 0.956542 9.85716 0.956542C13.4637 0.956542 16.4006 3.88994 16.4006 7.5C16.4006 11.1101 13.4672 14.0435 9.8607 14.0435C8.11413 14.0435 6.47029 13.3632 5.23742 12.1268C5.04965 11.9391 4.74852 11.9391 4.56075 12.1268C4.37299 12.3146 4.37299 12.6157 4.56075 12.8035C5.97785 14.2206 7.85905 15 9.8607 15C13.9915 15 17.3572 11.6379 17.3572 7.5C17.3572 3.36207 13.9915 0 9.85716 0Z" fill="black"/>
</svg>
