<svg width="22" height="13" viewBox="0 0 22 13" fill="none" xmlns="http://www.w3.org/2000/svg">
<path d="M20.921 11.2267C20.8955 11.1718 20.8718 11.1263 20.8498 11.0898C20.4848 10.4326 19.7875 9.62592 18.7582 8.66953L18.7364 8.64762L18.7255 8.63689L18.7145 8.62588H18.7035C18.2363 8.18053 17.9405 7.88109 17.8166 7.72778C17.5899 7.43575 17.5391 7.14014 17.663 6.84062C17.7505 6.61433 18.0793 6.13642 18.6486 5.40624C18.948 5.01928 19.1852 4.70913 19.3603 4.47547C20.6234 2.79627 21.171 1.72324 21.003 1.25595L20.9377 1.14676C20.8939 1.08102 20.7808 1.02087 20.5984 0.966026C20.4157 0.911292 20.1822 0.902241 19.8974 0.938717L16.7436 0.960503C16.6926 0.942399 16.6196 0.944086 16.5246 0.966026C16.4296 0.987965 16.3821 0.998973 16.3821 0.998973L16.3273 1.0264L16.2837 1.05934C16.2472 1.08113 16.207 1.11945 16.1632 1.17422C16.1196 1.2288 16.0831 1.29285 16.0539 1.36584C15.7106 2.24921 15.3202 3.07051 14.8821 3.82972C14.6119 4.28243 14.3638 4.67477 14.1373 5.00696C13.911 5.33905 13.7212 5.58371 13.568 5.74055C13.4146 5.89754 13.2761 6.02331 13.1518 6.11831C13.0276 6.21336 12.9328 6.25352 12.8672 6.23883C12.8014 6.22414 12.7395 6.20956 12.6808 6.19499C12.5787 6.12924 12.4965 6.03984 12.4346 5.92669C12.3724 5.81354 12.3305 5.67113 12.3086 5.49956C12.2868 5.32788 12.2739 5.18022 12.2703 5.05606C12.2668 4.93206 12.2684 4.75666 12.2758 4.53036C12.2834 4.30395 12.2868 4.15076 12.2868 4.07044C12.2868 3.79298 12.2922 3.49185 12.3031 3.16698C12.3141 2.84211 12.3231 2.5847 12.3305 2.39507C12.338 2.20525 12.3414 2.00442 12.3414 1.7927C12.3414 1.58098 12.3286 1.41494 12.3031 1.29442C12.2779 1.17407 12.2393 1.05723 12.1884 0.943971C12.1372 0.830823 12.0623 0.743296 11.9639 0.68116C11.8654 0.619101 11.7429 0.569852 11.5971 0.533261C11.2101 0.445696 10.7174 0.398327 10.1186 0.390962C8.76077 0.376387 7.8883 0.464068 7.50137 0.653889C7.34806 0.73409 7.20933 0.843672 7.08529 0.982288C6.95384 1.14296 6.93551 1.23064 7.0304 1.24506C7.4685 1.31069 7.77864 1.46768 7.96117 1.71587L8.02695 1.8474C8.07812 1.94229 8.12921 2.11028 8.18033 2.35116C8.23139 2.59203 8.26433 2.85848 8.27883 3.15037C8.31527 3.68339 8.31527 4.13967 8.27883 4.51924C8.24228 4.89896 8.20776 5.19456 8.17481 5.40628C8.14186 5.618 8.09262 5.78957 8.02695 5.92094C7.96117 6.05234 7.91741 6.13266 7.89547 6.16181C7.87357 6.19096 7.85531 6.20933 7.84081 6.21654C7.74592 6.2529 7.64723 6.27143 7.54509 6.27143C7.4428 6.27143 7.31876 6.22026 7.17278 6.11801C7.02683 6.01575 6.87537 5.87529 6.71838 5.6964C6.56139 5.51748 6.38434 5.26744 6.18716 4.94625C5.99012 4.62506 5.78569 4.24546 5.57397 3.80744L5.3988 3.48978C5.28929 3.28542 5.13971 2.98786 4.94989 2.59736C4.75995 2.20671 4.59207 1.82883 4.44613 1.4638C4.38779 1.3105 4.30014 1.19378 4.18335 1.11346L4.12854 1.08052C4.0921 1.05137 4.03361 1.02041 3.95337 0.987428C3.87302 0.954481 3.78917 0.930853 3.70149 0.916317L0.700984 0.938103C0.394371 0.938103 0.186331 1.00756 0.0767876 1.1463L0.0329473 1.21192C0.0110464 1.24847 0 1.30685 0 1.38721C0 1.46752 0.021901 1.5661 0.0657412 1.68281C0.50376 2.71227 0.980097 3.7051 1.49475 4.66146C2.0094 5.61781 2.45663 6.38818 2.83616 6.97188C3.21576 7.55599 3.60269 8.10727 3.99694 8.62546C4.3912 9.14383 4.65217 9.47603 4.77986 9.62197C4.90769 9.76818 5.00811 9.87749 5.0811 9.95048L5.35492 10.2133C5.53013 10.3885 5.78742 10.5984 6.1269 10.8429C6.46646 11.0876 6.84238 11.3284 7.25486 11.5659C7.66741 11.803 8.14735 11.9964 8.69495 12.1461C9.24247 12.2958 9.77538 12.3559 10.2938 12.3269H11.5531C11.8085 12.3049 12.002 12.2246 12.1336 12.086L12.1771 12.0311C12.2064 11.9875 12.2339 11.9198 12.2592 11.8287C12.2848 11.7375 12.2975 11.6369 12.2975 11.5276C12.29 11.2137 12.3139 10.9308 12.3686 10.679C12.4231 10.4272 12.4853 10.2374 12.5549 10.1096C12.6245 9.98186 12.7029 9.87408 12.7903 9.78671C12.8778 9.69914 12.9402 9.64609 12.9768 9.62784C13.0131 9.60946 13.0422 9.597 13.0641 9.58952C13.2393 9.53114 13.4455 9.58768 13.683 9.7594C13.9203 9.93096 14.1428 10.1428 14.351 10.3946C14.5591 10.6466 14.8091 10.9293 15.1011 11.2431C15.3932 11.5571 15.6487 11.7905 15.8676 11.944L16.0865 12.0755C16.2328 12.1631 16.4226 12.2434 16.6562 12.3164C16.8895 12.3894 17.0938 12.4076 17.2693 12.3712L20.0726 12.3274C20.3499 12.3274 20.5656 12.2815 20.7187 12.1904C20.872 12.0992 20.9631 11.9987 20.9925 11.8893C21.0218 11.7798 21.0233 11.6557 20.998 11.5168C20.9721 11.3783 20.9465 11.2815 20.921 11.2267Z" fill="#454545"/>
</svg>
