<svg width="18" height="13" viewBox="0 0 18 13" fill="none" xmlns="http://www.w3.org/2000/svg">
<path d="M16.8252 2.26423C16.7273 1.90086 16.5358 1.56955 16.2697 1.30346C16.0036 1.03736 15.6723 0.845821 15.3089 0.747993C13.9706 0.389404 8.60729 0.389404 8.60729 0.389404C8.60729 0.389404 3.24258 0.389404 1.90705 0.747993C1.54368 0.845821 1.21237 1.03736 0.946278 1.30346C0.680187 1.56955 0.488643 1.90086 0.390815 2.26423C0.0322266 3.60117 0.0322266 6.39223 0.0322266 6.39223C0.0322266 6.39223 0.0322266 9.18329 0.390815 10.5202C0.488643 10.8836 0.680187 11.2149 0.946278 11.481C1.21237 11.7471 1.54368 11.9386 1.90705 12.0365C3.24399 12.3894 8.60729 12.3894 8.60729 12.3894C8.60729 12.3894 13.972 12.3894 15.3075 12.0308C15.6709 11.933 16.0022 11.7414 16.2683 11.4754C16.5344 11.2093 16.7259 10.878 16.8238 10.5146C17.1823 9.17764 17.1823 6.38658 17.1823 6.38658C17.1823 6.38658 17.1823 3.60117 16.8252 2.26423ZM6.89199 8.96446V3.81999L11.3489 6.39223L6.89199 8.96446Z" fill="#454545"/>
</svg>
