<svg width="686" height="383" viewBox="0 0 686 383" fill="none" xmlns="http://www.w3.org/2000/svg">
<path d="M0.25 179V151.5L69.25 53.75C71.5833 50.4167 73.8333 47.4167 76 44.75C78.3333 42.0833 80.0833 40.1667 81.25 39L83 37.5V37C79.1667 37.5 74.5833 37.75 69.25 37.75H3.5V0.249992H138.5V27.25L69.25 125.5C66.9167 128.833 64.5833 131.833 62.25 134.5C60.0833 137.167 58.4167 139 57.25 140L55.5 141.75V142.25C59.3333 141.75 63.9167 141.5 69.25 141.5H139.75V179H0.25ZM168.441 179V0.249992H212.691L262.191 83.75C264.191 87.25 266.441 91.5833 268.941 96.75C271.441 101.75 273.441 105.917 274.941 109.25L277.191 114.25H277.691C276.358 101.417 275.691 91.25 275.691 83.75V0.249992H319.441V179H275.441L225.691 95.75C223.691 92.25 221.441 88 218.941 83C216.441 77.8333 214.441 73.5833 212.941 70.25L210.691 65.25H210.191C211.525 78.0833 212.191 88.25 212.191 95.75V179H168.441ZM337.418 179L398.168 0.249992H444.168L504.918 179H459.918L448.918 141.5H393.168L382.418 179H337.418ZM403.418 106.5H438.668L428.668 71.75L421.418 41H420.918C418.251 54 415.835 64.25 413.668 71.75L403.418 106.5ZM522.934 179V0.249992H566.684V69.25H584.684L621.684 0.249992H668.684L620.434 85.75V86.25L671.434 179H622.434L584.684 106.5H566.684V179H522.934ZM0.25 290.25C0.25 263.917 9 242 26.5 224.5C44.1667 207 66.6667 198.25 94 198.25C106.5 198.25 118.667 200.417 130.5 204.75C142.333 208.917 152.5 215.167 161 223.5L140.75 256.5C134.75 251.167 127.667 246.833 119.5 243.5C111.5 240 103.667 238.25 96 238.25C79.3333 238.25 66.75 243.25 58.25 253.25C49.75 263.083 45.5 275.083 45.5 289.25C45.5 303.75 49.8333 316.333 58.5 327C67.3333 337.667 79.8333 343 96 343C113 343 128.833 335.667 143.5 321L166 353C146.667 373 122.667 383 94 383C65.6667 383 42.9167 374.333 25.75 357C8.75 339.5 0.25 317.25 0.25 290.25ZM174.316 289.5C174.316 263.5 183.066 241.833 200.566 224.5C218.066 207 240.483 198.25 267.816 198.25C295.15 198.25 317.566 207 335.066 224.5C352.566 241.833 361.316 263.5 361.316 289.5C361.316 316.167 352.566 338.417 335.066 356.25C317.566 374.083 295.15 383 267.816 383C240.483 383 218.066 374.083 200.566 356.25C183.066 338.417 174.316 316.167 174.316 289.5ZM219.566 289.5C219.566 304.833 224.066 317.583 233.066 327.75C242.233 337.917 253.816 343 267.816 343C281.816 343 293.316 337.917 302.316 327.75C311.483 317.583 316.066 304.833 316.066 289.5C316.066 274.833 311.483 262.667 302.316 253C293.316 243.167 281.816 238.25 267.816 238.25C253.816 238.25 242.233 243.167 233.066 253C224.066 262.667 219.566 274.833 219.566 289.5ZM389.145 380V201.25H498.645V238.75H432.895V276.25H487.395V313.75H432.895V380H389.145ZM523.422 380V201.25H632.922V238.75H567.172V276.25H621.672V313.75H567.172V380H523.422ZM657.699 380V201.25H769.699V238.75H701.449V271.25H755.949V308.75H701.449V342.5H773.199V380H657.699ZM801.254 380V201.25H913.254V238.75H845.004V271.25H899.504V308.75H845.004V342.5H916.754V380H801.254Z" fill="#EFF3F7"/>
</svg>
